<?xml version="1.0" encoding="utf-8"?>
<!-- Generator: Adobe Illustrator 16.0.0, SVG Export Plug-In . SVG Version: 6.00 Build 0)  -->
<!DOCTYPE svg PUBLIC "-//W3C//DTD SVG 1.1//EN" "http://www.w3.org/Graphics/SVG/1.1/DTD/svg11.dtd">
<svg version="1.1" id="Layer_1" xmlns="http://www.w3.org/2000/svg" xmlns:xlink="http://www.w3.org/1999/xlink" x="0px" y="0px"
	 width="248.75px" height="183.5px" viewBox="1 -17 248.75 183.5" enable-background="new 1 -17 248.75 183.5" xml:space="preserve"
	>
<rect x="0.457" y="-19.497" fill="#000435" width="249.836" height="188.493"/>
<g>
	<g>
		<g>
			<g>
				<g>
					<path fill="#FFFFFF" d="M85.85,94.953c-4.424,4.432-11.529,7.336-18.516,7.336c-15.02,0-27.366-11.871-27.366-27.939
						c0-16.887,13.509-27.713,27.366-27.713c7.102,0,14.092,2.561,18.514,7.1c1.281,1.166,1.047,2.559,0.232,3.492
						c-1.043,1.283-2.441,0.697-3.607-0.115c-3.961-3.725-9.314-5.709-15.135-5.709c-12.58,0-22.36,10.131-22.36,22.943
						c0,12.574,9.548,23.053,22.36,23.053c5.588,0,11.059-1.982,15.135-5.939c1.166-0.813,2.564-1.395,3.725,0
						C87.012,92.279,87.129,93.793,85.85,94.953z"/>
					<path fill="#FFFFFF" d="M67.334,105.42c-17.1,0-30.499-13.65-30.499-31.072c0-19.311,15.507-30.848,30.499-30.848
						c8.055,0,15.783,2.984,20.697,7.988c2.309,2.166,2.484,5.434,0.404,7.803c-1.426,1.75-4.268,2.832-7.758,0.389
						c-0.121-0.088-0.24-0.184-0.352-0.285c-3.326-3.129-7.943-4.855-12.992-4.855c-10.781,0-19.226,8.699-19.226,19.811
						c0,11.168,8.443,19.918,19.226,19.918c5,0,9.602-1.793,12.953-5.051c0.121-0.115,0.252-0.223,0.391-0.32
						c4.209-2.943,6.963-0.535,7.836,0.457c0.943,1,1.463,2.354,1.43,3.748c-0.035,1.533-0.719,2.994-1.926,4.115
						C82.924,102.277,75.006,105.42,67.334,105.42z"/>
				</g>
				<g>
					<path fill="#FFFFFF" d="M154.67,28.934V74.35c0,15.252-12.574,27.939-27.945,27.939c-15.369,0-27.828-12.689-27.828-27.939
						c0-15.488,12.459-27.713,27.828-27.713c9.434,0,17.936,4.654,22.941,11.875V28.934c0-1.398,0.934-2.561,2.445-2.561
						C153.51,26.371,154.67,27.533,154.67,28.934z M149.895,74.35c0-0.703,0-1.4-0.113-2.098c0-0.463-0.117-0.816-0.117-1.164
						c-1.514-11.18-11.063-19.682-22.707-19.682c-13.043,0-23.057,10.133-23.057,22.943c0,12.578,10.014,23.055,23.057,23.055
						C139.766,97.4,149.895,86.922,149.895,74.35z"/>
					<path fill="#FFFFFF" d="M126.725,105.42c-17.068,0-30.961-13.938-30.961-31.072c0-17.012,13.889-30.848,30.961-30.848
						c7.346,0,14.328,2.541,19.811,7.039V28.934c0-3.248,2.396-5.695,5.576-5.695c3.135,0,5.693,2.555,5.693,5.695V74.35
						C157.805,91.482,143.859,105.42,126.725,105.42z M126.957,54.535c-11.166,0-19.92,8.703-19.92,19.813
						c0,11.17,8.754,19.92,19.92,19.92c10.926,0,19.809-8.939,19.809-19.92c0-0.615,0-1.141-0.074-1.586
						c-0.031-0.174-0.041-0.344-0.041-0.516c-0.006-0.059-0.018-0.127-0.029-0.186c-0.039-0.244-0.064-0.473-0.082-0.699
						C145.154,61.605,136.936,54.535,126.957,54.535z M149.754,61.643c0.701,1.25,1.301,2.572,1.787,3.947v-4.574
						c-0.279,0.213-0.594,0.373-0.939,0.48C150.32,61.588,150.037,61.635,149.754,61.643z"/>
				</g>
			</g>
			<g>
				<g>
					<path fill="#FFFFFF" d="M208.414,101.35h-35.428c-0.963,0-1.732-0.584-1.926-1.354c-0.387-0.67-0.195-1.633,0.48-2.213
						l27.82-28.496c3.371-3.465,6.164-7.797,6.164-12.418c0-8.182-6.352-13.67-14.443-13.67c-7.797,0-14.344,5.295-14.535,12.805
						c-0.389,1.248-1.156,1.832-2.408,1.736c-1.152-0.195-1.734-1.158-1.633-2.408c0.381-8.184,7.791-16.076,18.77-16.076
						c10.496,0,18.385,7.027,18.385,17.328c0,5.295-2.305,10.303-7.314,15.404l-24.938,25.225h30.998c1.25,0,2.121,0.869,2.121,2.02
						C210.531,100.383,209.664,101.35,208.414,101.35z"/>
					<path fill="#FFFFFF" d="M208.414,104.734h-35.428c-2.328,0-4.352-1.406-5.08-3.477c-0.893-1.982-0.383-4.383,1.295-5.922
						l27.742-28.416c2.369-2.438,5.197-6.164,5.197-10.055c0-6.057-4.547-10.285-11.057-10.285c-6.213,0-11.014,4.086-11.15,9.506
						c-0.012,0.307-0.061,0.611-0.15,0.906c-0.859,2.795-3.061,4.348-5.904,4.113c-0.094-0.004-0.195-0.02-0.295-0.037
						c-2.861-0.473-4.693-2.945-4.455-6.006c0.438-9.389,8.848-19.205,22.146-19.205c12.615,0,21.775,8.715,21.775,20.719
						c0,6.277-2.711,12.096-8.287,17.775l-19.242,19.465h22.893c3.084,0,5.5,2.375,5.5,5.406
						C213.92,102.32,211.5,104.734,208.414,104.734z M208.414,100.596h0.014H208.414z"/>
				</g>
			</g>
		</g>
	</g>
	<g>
		<g>
			<path fill="#FFFFFF" d="M92.641,123.109c-0.531,0.529-1.381,0.885-2.217,0.885c-1.807,0-3.283-1.432-3.283-3.359
				c0-2.025,1.621-3.324,3.283-3.324c0.85,0,1.689,0.305,2.217,0.854c0.156,0.141,0.131,0.303,0.029,0.414
				c-0.127,0.158-0.295,0.084-0.43-0.01c-0.475-0.449-1.121-0.688-1.816-0.688c-1.512,0-2.684,1.219-2.684,2.754
				c0,1.51,1.145,2.771,2.684,2.771c0.67,0,1.328-0.24,1.816-0.715c0.139-0.1,0.303-0.17,0.445,0
				C92.779,122.785,92.797,122.969,92.641,123.109z"/>
			<path fill="#FFFFFF" d="M93.838,120.799v-3.113c0-0.17,0.139-0.297,0.305-0.297c0.154,0,0.293,0.127,0.293,0.297v3.129
				c0,1.467,1.021,2.586,2.391,2.586c1.426,0,2.357-1.146,2.357-2.633v-3.086c0-0.172,0.117-0.293,0.311-0.293
				c0.166,0,0.297,0.139,0.297,0.293v3.117c0,1.758-1.246,3.186-2.965,3.186C95.094,123.984,93.838,122.559,93.838,120.799z"/>
			<path fill="#FFFFFF" d="M100.912,122.951c-0.082-0.096-0.094-0.18-0.094-0.238c0-0.137,0.094-0.248,0.248-0.248
				c0.111,0,0.221,0.057,0.305,0.121c0.365,0.559,1.006,0.824,1.887,0.824c0.91,0,1.678-0.531,1.678-1.266
				c0-0.77-0.781-1.109-2.078-1.457c-0.982-0.266-1.9-0.725-1.9-1.76c0-1.119,1.129-1.617,2.191-1.617c0.854,0,1.521,0.279,2,0.908
				c0.064,0.068,0.107,0.17,0.107,0.248c0,0.158-0.107,0.281-0.238,0.281c-0.127,0-0.18-0.043-0.281-0.111
				c-0.389-0.557-0.975-0.756-1.645-0.756c-0.658,0-1.539,0.238-1.539,1.076c0,0.768,0.758,1.033,1.551,1.271
				c1.383,0.406,2.432,0.824,2.432,1.916c0,1.076-1.064,1.84-2.307,1.84C102.111,123.984,101.305,123.57,100.912,122.951z"/>
			<path fill="#FFFFFF" d="M106.65,120.77v-5.389c0-0.166,0.141-0.303,0.297-0.303c0.178,0,0.305,0.137,0.305,0.303v2.014h3.32
				c0.182,0,0.309,0.109,0.309,0.279c0,0.168-0.111,0.297-0.309,0.297h-3.32v2.85c0,1.871,1.104,2.586,2.09,2.586
				c0.842,0,1.285-0.211,1.887-0.703c0.1-0.068,0.27-0.084,0.381,0.059c0.057,0.096,0.057,0.266-0.084,0.391
				c-0.557,0.545-1.229,0.842-2.184,0.842C108.045,123.984,106.65,123.078,106.65,120.77z"/>
			<path fill="#FFFFFF" d="M112.328,120.646c0-1.857,1.492-3.338,3.367-3.338c1.871,0,3.354,1.48,3.354,3.338
				c0,1.828-1.482,3.338-3.354,3.338C113.82,123.984,112.328,122.475,112.328,120.646z M118.447,120.646
				c0-1.537-1.191-2.766-2.752-2.766c-1.553,0-2.768,1.229-2.768,2.766c0,1.508,1.203,2.754,2.768,2.754
				C117.256,123.4,118.447,122.158,118.447,120.646z"/>
			<path fill="#FFFFFF" d="M128.625,123.584c0,0.17-0.143,0.303-0.297,0.303c-0.17,0-0.307-0.137-0.307-0.303v-4.123
				c0-0.893-0.809-1.58-1.676-1.58c-0.906,0-1.678,0.756-1.678,1.635v4.068c0,0.17-0.137,0.303-0.293,0.303
				c-0.172,0-0.311-0.137-0.311-0.303v-4.123c0-0.893-0.797-1.58-1.66-1.58c-0.906,0-1.678,0.756-1.678,1.635v4.068
				c0,0.17-0.139,0.303-0.291,0.303c-0.17,0-0.307-0.137-0.307-0.303v-4.074c0-1.223,1.076-2.195,2.275-2.195
				c0.895,0,1.689,0.555,1.955,1.381c0.293-0.826,1.117-1.381,1.998-1.381c1.215,0,2.219,0.949,2.264,2.15v4.119H128.625z"/>
			<path fill="#FFFFFF" d="M139.742,115.189v5.445c0,1.83-1.512,3.359-3.354,3.359c-1.848,0-3.338-1.529-3.338-3.359
				c0-1.857,1.49-3.324,3.338-3.324c1.127,0,2.152,0.559,2.75,1.426v-3.547c0-0.17,0.113-0.309,0.293-0.309
				C139.604,114.879,139.742,115.02,139.742,115.189z M139.166,120.635c0-0.082,0-0.168-0.012-0.252
				c0-0.055-0.016-0.096-0.016-0.139c-0.178-1.346-1.326-2.363-2.725-2.363c-1.564,0-2.766,1.219-2.766,2.754
				c0,1.51,1.201,2.771,2.766,2.771C137.957,123.4,139.166,122.145,139.166,120.635z"/>
			<path fill="#FFFFFF" d="M147.027,120.467c0,0.209-0.088,0.359-0.268,0.359h-5.336c0.096,1.459,1.201,2.574,2.641,2.574
				c0.867,0,1.453-0.293,1.871-0.742c0.121-0.127,0.32-0.184,0.443-0.045c0.086,0.1,0.1,0.293-0.039,0.432
				c-0.449,0.535-1.191,0.939-2.293,0.939c-1.869,0-3.229-1.492-3.229-3.354c0-1.83,1.359-3.324,3.229-3.324
				C145.809,117.311,147.027,118.789,147.027,120.467z M146.494,120.287c-0.043-1.285-1.08-2.406-2.416-2.406
				c-1.412,0-2.477,1.035-2.633,2.406H146.494z"/>
			<path fill="#FFFFFF" d="M149.854,123.594l-2.627-5.785c-0.082-0.166,0.031-0.414,0.268-0.414c0.107,0,0.236,0.059,0.279,0.193
				l2.443,5.502l2.475-5.502c0.039-0.137,0.139-0.193,0.277-0.193c0.211,0,0.338,0.221,0.258,0.414l-2.637,5.785
				c-0.082,0.182-0.207,0.293-0.359,0.293C150.064,123.887,149.92,123.775,149.854,123.594z"/>
			<path fill="#FFFFFF" d="M159.672,120.467c0,0.209-0.086,0.359-0.268,0.359h-5.338c0.098,1.459,1.201,2.574,2.645,2.574
				c0.863,0,1.449-0.293,1.867-0.742c0.127-0.127,0.322-0.184,0.449-0.045c0.082,0.1,0.094,0.293-0.045,0.432
				c-0.449,0.535-1.188,0.939-2.293,0.939c-1.871,0-3.225-1.492-3.225-3.354c0-1.83,1.354-3.324,3.225-3.324
				C158.451,117.311,159.672,118.789,159.672,120.467z M159.137,120.287c-0.043-1.285-1.072-2.406-2.418-2.406
				c-1.41,0-2.473,1.035-2.625,2.406H159.137z"/>
			<path fill="#FFFFFF" d="M160.709,121.498v-6.313c0-0.172,0.123-0.307,0.307-0.307c0.17,0,0.295,0.141,0.295,0.307v6.199
				c0,1.246,0.631,1.934,1.676,1.934c0.17,0.027,0.268,0.109,0.268,0.303c0,0.166-0.143,0.281-0.377,0.281
				C161.645,123.902,160.709,123.174,160.709,121.498z"/>
			<path fill="#FFFFFF" d="M163.512,120.646c0-1.857,1.494-3.338,3.367-3.338c1.871,0,3.352,1.48,3.352,3.338
				c0,1.828-1.479,3.338-3.352,3.338S163.512,122.475,163.512,120.646z M169.629,120.646c0-1.537-1.188-2.766-2.75-2.766
				c-1.555,0-2.766,1.229-2.766,2.766c0,1.508,1.201,2.754,2.766,2.754C168.441,123.4,169.629,122.158,169.629,120.646z"/>
			<path fill="#FFFFFF" d="M178.002,120.646c0,1.828-1.494,3.338-3.338,3.338c-1.129,0-2.152-0.574-2.752-1.438v3.408
				c0,0.17-0.127,0.307-0.307,0.307c-0.152,0-0.295-0.137-0.295-0.307v-5.309c0-1.857,1.506-3.338,3.354-3.338
				C176.508,117.309,178.002,118.789,178.002,120.646z M177.404,120.646c0-1.537-1.203-2.766-2.768-2.766
				c-1.541,0-2.752,1.229-2.752,2.766c0,0.096,0,0.18,0.01,0.279c0,0.045,0.018,0.072,0.018,0.109
				c0.182,1.33,1.328,2.365,2.725,2.365C176.207,123.4,177.404,122.158,177.404,120.646z"/>
			<path fill="#FFFFFF" d="M185.094,120.467c0,0.209-0.084,0.359-0.268,0.359h-5.336c0.1,1.459,1.201,2.574,2.641,2.574
				c0.867,0,1.455-0.293,1.871-0.742c0.127-0.127,0.32-0.184,0.449-0.045c0.082,0.1,0.094,0.293-0.045,0.432
				c-0.449,0.535-1.184,0.939-2.293,0.939c-1.873,0-3.227-1.492-3.227-3.354c0-1.83,1.354-3.324,3.227-3.324
				C183.877,117.311,185.094,118.789,185.094,120.467z M184.561,120.287c-0.037-1.285-1.072-2.406-2.416-2.406
				c-1.408,0-2.471,1.035-2.627,2.406H184.561z"/>
			<path fill="#FFFFFF" d="M189.637,117.98c-1.688,0-2.904,0.904-2.904,2.893v2.711c0,0.17-0.123,0.303-0.295,0.303
				c-0.166,0-0.301-0.137-0.301-0.303v-2.742c0-2.418,1.469-3.465,3.479-3.465c0.248,0,0.35,0.156,0.35,0.297
				C189.957,117.838,189.848,117.98,189.637,117.98z"/>
		</g>
	</g>
</g>
</svg>
